<svg xmlns="http://www.w3.org/2000/svg" version="1.1" xmlns:xlink="http://www.w3.org/1999/xlink" xmlns:svgjs="http://svgjs.dev/svgjs" width="1440" height="560" preserveAspectRatio="none" viewBox="0 0 1440 560"><g mask="url(&quot;#SvgjsMask1005&quot;)" fill="none"><rect width="1440" height="560" x="0" y="0" fill="#0e2a47"></rect><path d="M885.42 594.49C999.52 579.5 1033.05 338.92 1252.77 317.11 1472.49 295.3 1514.25 111.81 1620.12 104.31" stroke="rgba(51,121,194,0.58)" stroke-width="2"></path><path d="M439.36 619.59C568.84 618.82 675.75 507.66 943.82 502.16 1211.89 496.66 1308.07 262.23 1448.28 255.76" stroke="rgba(51,121,194,0.58)" stroke-width="2"></path><path d="M716.05 593.63C859.71 547.79 899.6 136.24 1105.03 132.64 1310.47 129.04 1385.26 323.21 1494.02 328.64" stroke="rgba(51,121,194,0.58)" stroke-width="2"></path><path d="M921.02 635.1C992.3 630.37 960.61 505.53 1169.92 494.72 1379.23 483.91 1529.61 260.13 1667.72 253.92" stroke="rgba(51,121,194,0.58)" stroke-width="2"></path><path d="M531.02 649.34C669.59 597.37 609.61 182.88 891.27 179.59 1172.92 176.3 1427.71 329.98 1611.76 330.79" stroke="rgba(51,121,194,0.58)" stroke-width="2"></path></g><defs><mask id="SvgjsMask1005"><rect width="1440" height="560" fill="#ffffff"></rect></mask></defs></svg>