<svg xmlns="http://www.w3.org/2000/svg" version="1.1" xmlns:xlink="http://www.w3.org/1999/xlink" xmlns:svgjs="http://svgjs.dev/svgjs" width="1440" height="560" preserveAspectRatio="none" viewBox="0 0 1440 560"><g mask="url(&quot;#SvgjsMask2420&quot;)" fill="none"><rect width="1440" height="560" x="0" y="0" fill="url(&quot;#SvgjsLinearGradient2421&quot;)"></rect><path d="M278.443,699.239C333.495,699.403,367.219,644.373,392.233,595.332C414.436,551.802,422.505,502.75,401.059,458.843C376.595,408.758,334.152,364.221,278.443,362.371C220.159,360.435,166.301,397.727,140.86,450.201C118.011,497.328,140.497,548.813,165.824,594.656C192.376,642.717,223.535,699.075,278.443,699.239" fill="rgba(192, 192, 192, 1)" class="triangle-float1"></path><path d="M387.189,104.905C411.509,103.332,428.447,83.995,441.184,63.218C454.756,41.079,467.556,15.542,456.326,-7.872C443.869,-33.846,415.996,-49.261,387.189,-49.366C358.204,-49.472,331.361,-33.654,317.172,-8.38C303.268,16.387,304.635,46.924,319.568,71.085C333.769,94.063,360.233,106.649,387.189,104.905" fill="rgba(192, 192, 192, 1)" class="triangle-float1"></path><path d="M392.257,191.578C426.361,192.788,460.738,180.912,479.318,152.289C499.571,121.089,501.996,81.55,485.237,48.342C466.641,11.496,433.497,-18.575,392.257,-20.219C348.432,-21.966,303.878,0.562,285.489,40.381C268.983,76.121,292.568,114.311,315.276,146.468C333.664,172.507,360.4,190.448,392.257,191.578" fill="rgba(192, 192, 192, 1)" class="triangle-float2"></path><path d="M1245.292,373.647C1296.741,372.357,1351.82,364.116,1379.196,320.536C1408.01,274.666,1403.364,214.426,1373.842,169.009C1346.658,127.189,1295.171,114.444,1245.292,114.539C1195.623,114.634,1145.679,128.534,1117.591,169.498C1085.443,216.383,1069.082,279.359,1099.23,327.555C1128.249,373.946,1190.59,375.019,1245.292,373.647" fill="rgba(192, 192, 192, 1)" class="triangle-float2"></path><path d="M962.293,205.752C978.33,204.575,991.766,194.858,999.859,180.963C1008.013,166.962,1011.435,149.607,1003.077,135.727C994.923,122.187,978.083,119.282,962.293,118.579C944.66,117.793,924.869,117.372,914.689,131.79C903.253,147.987,903.054,170.608,913.785,187.28C923.821,202.873,943.799,207.109,962.293,205.752" fill="rgba(192, 192, 192, 1)" class="triangle-float3"></path><path d="M744.747,217.159C798.425,218.66,851.641,197.344,880.1,151.806C910.248,103.566,913.218,42.079,885.05,-7.344C856.623,-57.222,802.154,-86.288,744.747,-85.683C688.376,-85.089,636.01,-54.178,609.475,-4.44C584.327,42.698,594.062,98.984,621.899,144.586C648.459,188.096,693.791,215.734,744.747,217.159" fill="rgba(192, 192, 192, 1)" class="triangle-float2"></path><path d="M459.946,361.872C477.997,362.065,493.215,349.59,501.956,333.796C510.404,318.532,510.849,300.291,502.51,284.967C493.775,268.914,478.204,257.404,459.946,256.593C440.216,255.716,419.537,263.421,410.283,280.868C401.435,297.548,409.593,316.818,419.462,332.915C428.757,348.076,442.164,361.682,459.946,361.872" fill="rgba(192, 192, 192, 1)" class="triangle-float2"></path><path d="M989.08,248.069C1048.835,249.814,1105.66,214.749,1132.029,161.099C1155.988,112.351,1134.691,57.152,1105.394,11.412C1078.882,-29.981,1038.18,-59.73,989.08,-62.085C935.388,-64.661,879.347,-46.849,851.684,-0.759C823.347,46.454,833.281,104.946,859.898,153.15C887.581,203.286,931.833,246.397,989.08,248.069" fill="rgba(192, 192, 192, 1)" class="triangle-float2"></path><path d="M1398.597,760.564C1452.069,758.728,1487.178,709.698,1511.294,661.937C1532.627,619.687,1538.883,570.529,1515.257,529.518C1491.595,488.444,1445.988,465.3,1398.597,466.316C1352.914,467.295,1314.444,495.553,1290.29,534.34C1264.398,575.917,1250.5,625.986,1271.651,670.164C1295.694,720.383,1342.952,762.474,1398.597,760.564" fill="rgba(192, 192, 192, 1)" class="triangle-float2"></path></g><defs><mask id="SvgjsMask2420"><rect width="1440" height="560" fill="#ffffff"></rect></mask><linearGradient x1="50%" y1="100%" x2="50%" y2="0%" gradientUnits="userSpaceOnUse" id="SvgjsLinearGradient2421"><stop stop-color="rgba(219, 219, 222, 1)" offset="0"></stop><stop stop-color="rgba(250, 250, 251, 1)" offset="1"></stop></linearGradient></defs></svg>